<svg xmlns="http://www.w3.org/2000/svg" width="1200" height="520" viewBox="0 0 1200 520" role="img" aria-label="about me: cosmetologist since 2021 and data engineer at Fidelity now; first-gen latina and UTA information systems grad; Sephora price analysis on 1,400+ products; featured in Times Square and LinkedIn Next Gen Voices; selected for Microsoft, Bloomberg and American Airlines programs; co-founder of From Campus to Career. the pink and the python were never a contradiction.">
  <rect width="1200" height="520" rx="22" fill="#0A0A0A"/>
  <g><path d="M758 -10 C696 192 607 363 585 540" stroke="#FF2E93" stroke-width="0.8" stroke-opacity="0.5" fill="none" stroke-linecap="round"/><path d="M766 -10 C738 146 617 354 654 540" stroke="#FF2E93" stroke-width="0.8" stroke-opacity="0.5" fill="none" stroke-linecap="round"/><path d="M786 -10 C776 145 696 324 594 540" stroke="#FF2E93" stroke-width="3.2" stroke-opacity="0.5" fill="none" stroke-linecap="round"/><path d="M793 -10 C731 149 670 385 597 540" stroke="#FF2E93" stroke-width="3.2" stroke-opacity="0.5" fill="none" stroke-linecap="round"/><path d="M806 -10 C792 145 654 336 675 540" stroke="#FF2E93" stroke-width="2.4" stroke-opacity="0.7" fill="none" stroke-linecap="round"/><path d="M820 -10 C850 169 689 334 701 540" stroke="#FF2E93" stroke-width="0.8" stroke-opacity="0.7" fill="none" stroke-linecap="round"/><path d="M832 -10 C857 198 707 398 628 540" stroke="#FF2E93" stroke-width="2.4" stroke-opacity="0.5" fill="none" stroke-linecap="round"/><path d="M847 -10 C785 179 692 373 726 540" stroke="#FF2E93" stroke-width="3.2" stroke-opacity="0.7" fill="none" stroke-linecap="round"/><path d="M854 -10 C816 180 790 326 646 540" stroke="#FF2E93" stroke-width="1.6" stroke-opacity="0.9" fill="none" stroke-linecap="round"/><path d="M870 -10 C798 198 748 366 739 540" stroke="#FF2E93" stroke-width="2.4" stroke-opacity="0.7" fill="none" stroke-linecap="round"/><path d="M883 -10 C909 168 835 348 742 540" stroke="#FF2E93" stroke-width="2.4" stroke-opacity="0.35" fill="none" stroke-linecap="round"/><path d="M889 -10 C843 199 776 393 733 540" stroke="#FF2E93" stroke-width="1.2" stroke-opacity="0.9" fill="none" stroke-linecap="round"/><path d="M903 -10 C856 151 794 364 775 540" stroke="#FF2E93" stroke-width="1.6" stroke-opacity="0.9" fill="none" stroke-linecap="round"/><path d="M921 -10 C860 154 789 339 765 540" stroke="#FF2E93" stroke-width="3.2" stroke-opacity="0.5" fill="none" stroke-linecap="round"/><path d="M925 -10 C846 174 809 365 829 540" stroke="#FF2E93" stroke-width="3.2" stroke-opacity="0.35" fill="none" stroke-linecap="round"/><path d="M939 -10 C964 216 861 365 771 540" stroke="#FF2E93" stroke-width="2.4" stroke-opacity="0.35" fill="none" stroke-linecap="round"/><path d="M952 -10 C920 155 910 355 746 540" stroke="#FF2E93" stroke-width="3.2" stroke-opacity="0.35" fill="none" stroke-linecap="round"/><path d="M959 -10 C947 183 913 369 748 540" stroke="#FF2E93" stroke-width="1.2" stroke-opacity="0.9" fill="none" stroke-linecap="round"/><path d="M972 -10 C922 168 855 330 862 540" stroke="#FF2E93" stroke-width="2.4" stroke-opacity="0.9" fill="none" stroke-linecap="round"/><path d="M988 -10 C918 148 869 341 876 540" stroke="#FF2E93" stroke-width="1.2" stroke-opacity="0.35" fill="none" stroke-linecap="round"/><path d="M996 -10 C1031 169 919 393 875 540" stroke="#FF2E93" stroke-width="1.6" stroke-opacity="0.35" fill="none" stroke-linecap="round"/><path d="M1014 -10 C966 169 874 382 864 540" stroke="#FF2E93" stroke-width="3.2" stroke-opacity="0.7" fill="none" stroke-linecap="round"/><path d="M1026 -10 C1019 203 957 336 837 540" stroke="#FF2E93" stroke-width="2.4" stroke-opacity="0.5" fill="none" stroke-linecap="round"/><path d="M1032 -10 C1012 198 991 383 874 540" stroke="#FF2E93" stroke-width="1.2" stroke-opacity="0.7" fill="none" stroke-linecap="round"/><path d="M1047 -10 C1080 219 1002 349 856 540" stroke="#FF2E93" stroke-width="1.2" stroke-opacity="0.9" fill="none" stroke-linecap="round"/><path d="M1056 -10 C1001 190 1004 387 899 540" stroke="#FF2E93" stroke-width="1.6" stroke-opacity="0.35" fill="none" stroke-linecap="round"/><path d="M1076 -10 C1010 171 1001 336 972 540" stroke="#FF2E93" stroke-width="2.4" stroke-opacity="0.7" fill="none" stroke-linecap="round"/><path d="M1079 -10 C1113 198 975 379 870 540" stroke="#FF2E93" stroke-width="1.2" stroke-opacity="0.5" fill="none" stroke-linecap="round"/><path d="M1102 -10 C1025 187 998 372 961 540" stroke="#FF2E93" stroke-width="3.2" stroke-opacity="0.9" fill="none" stroke-linecap="round"/><path d="M1110 -10 C1072 184 966 321 1016 540" stroke="#FF2E93" stroke-width="0.8" stroke-opacity="0.5" fill="none" stroke-linecap="round"/><path d="M1119 -10 C1144 206 985 340 937 540" stroke="#FF2E93" stroke-width="1.2" stroke-opacity="0.7" fill="none" stroke-linecap="round"/><path d="M1129 -10 C1099 150 1078 348 969 540" stroke="#FF2E93" stroke-width="3.2" stroke-opacity="0.9" fill="none" stroke-linecap="round"/><path d="M1148 -10 C1173 150 1006 361 1041 540" stroke="#FF2E93" stroke-width="1.2" stroke-opacity="0.35" fill="none" stroke-linecap="round"/><path d="M1159 -10 C1097 151 1074 330 947 540" stroke="#FF2E93" stroke-width="3.2" stroke-opacity="0.9" fill="none" stroke-linecap="round"/><path d="M1171 -10 C1104 185 1041 342 1052 540" stroke="#FF2E93" stroke-width="3.2" stroke-opacity="0.9" fill="none" stroke-linecap="round"/><path d="M1181 -10 C1192 213 1074 369 1026 540" stroke="#FF2E93" stroke-width="3.2" stroke-opacity="0.5" fill="none" stroke-linecap="round"/><path d="M1194 -10 C1169 183 1092 395 1065 540" stroke="#FF2E93" stroke-width="1.6" stroke-opacity="0.5" fill="none" stroke-linecap="round"/><path d="M1208 -10 C1145 150 1101 326 1019 540" stroke="#FF2E93" stroke-width="0.8" stroke-opacity="0.5" fill="none" stroke-linecap="round"/></g>
  <rect x="0" y="0" width="760" height="520" rx="22" fill="#0A0A0A" fill-opacity="0.82"/>
  <text x="64" y="92" fill="#FF2E93" font-family="Helvetica, Arial, sans-serif" font-size="15" letter-spacing="6">✦ 01 ✦ MINI ABOUT ME</text>
  <text x="62" y="168" fill="#FF2E93" font-family="'Playfair Display', Didot, 'Bodoni 72', Georgia, serif" font-style="italic" font-size="64">hi, i'm jocelyn</text>
  <text x="64" y="232" fill="#FF2E93" font-family="Helvetica, Arial, sans-serif" font-size="20">✦</text><text x="94" y="232" fill="#FFFFFF" font-family="'SF Mono', Menlo, Consolas, monospace" font-size="19">cosmetologist since 2021, data engineer @ fidelity now</text><text x="64" y="272" fill="#FF2E93" font-family="Helvetica, Arial, sans-serif" font-size="20">✦</text><text x="94" y="272" fill="#FFFFFF" font-family="'SF Mono', Menlo, Consolas, monospace" font-size="19">first-gen latina, UTA information systems grad</text><text x="64" y="312" fill="#FF2E93" font-family="Helvetica, Arial, sans-serif" font-size="20">✦</text><text x="94" y="312" fill="#FFFFFF" font-family="'SF Mono', Menlo, Consolas, monospace" font-size="19">sephora price analysis on 1,400+ products</text><text x="64" y="352" fill="#FF2E93" font-family="Helvetica, Arial, sans-serif" font-size="20">✦</text><text x="94" y="352" fill="#FFFFFF" font-family="'SF Mono', Menlo, Consolas, monospace" font-size="19">featured in times square + linkedin next gen voices</text><text x="64" y="392" fill="#FF2E93" font-family="Helvetica, Arial, sans-serif" font-size="20">✦</text><text x="94" y="392" fill="#FFFFFF" font-family="'SF Mono', Menlo, Consolas, monospace" font-size="19">selected for microsoft, bloomberg + american airlines programs</text><text x="64" y="432" fill="#FF2E93" font-family="Helvetica, Arial, sans-serif" font-size="20">✦</text><text x="94" y="432" fill="#FFFFFF" font-family="'SF Mono', Menlo, Consolas, monospace" font-size="19">co-founder of from campus to career</text>
  <line x1="64" y1="470" x2="200" y2="470" stroke="#FF2E93" stroke-width="2"/>
  <text x="214" y="476" fill="#FF2E93" font-family="'Playfair Display', Didot, Georgia, serif" font-style="italic" font-size="20">the pink and the python were never a contradiction</text>
  <rect x="1" y="1" width="1198" height="518" rx="21" fill="none" stroke="#FF2E93" stroke-width="2"/>
</svg>